<svg xmlns="http://www.w3.org/2000/svg" viewBox="0 0 595.27559 85.03941"><defs><style>.a{fill:#0f1872;}.b{fill:#fff;}</style></defs><title>ganttic-logo</title><rect class="a" width="595.27559" height="85.03941"/><polygon class="b" points="226.381 49.21 195.544 11.082 185.749 11.082 185.749 73.929 198.896 73.929 198.896 36.274 229.654 73.929 239.448 73.929 239.448 11.082 226.381 11.082 226.381 49.21"/><polygon class="b" points="269.659 23.08 290.45 23.08 290.45 73.929 304.945 73.929 304.945 23.08 325.617 23.08 325.617 11.082 269.659 11.082 269.659 23.08"/><polygon class="b" points="442.782 23.08 460.529 23.08 460.529 61.932 442.782 61.932 442.782 73.929 492.652 73.929 492.652 61.932 475.023 61.932 475.023 23.08 492.652 23.08 492.652 11.082 442.782 11.082 442.782 23.08"/><path class="b" d="M553.21124,23.73328A18.79164,18.79164,0,0,1,570.40405,34.994h14.327a32.4297,32.4297,0,1,0,0,15.02368h-14.327A18.76809,18.76809,0,1,1,553.21124,23.73328Z"/><polygon class="b" points="354.699 23.08 375.49 23.08 375.49 73.929 389.984 73.929 389.984 23.08 410.657 23.08 410.657 11.082 354.699 11.082 354.699 23.08"/><path class="b" d="M42.51947,48.99347H60.86181A19.45526,19.45526,0,1,1,42.51947,23.051V10.076A32.42972,32.42972,0,1,0,74.94879,42.50592V36.01843H42.51947v12.975Z"/><path class="b" d="M120.98443,11.0835l-25.715,62.87244h64.57928L134.13141,11.0835h-13.147Zm-7.58112,50.69745,14.1546-34.60883,14.15686,34.60883H113.40332Z"/></svg>