<svg id="Layer_1" data-name="Layer 1" xmlns="http://www.w3.org/2000/svg" viewBox="0 0 1805.21029 394.35203"><defs><style>.cls-1{fill:#1358d0;}</style></defs><polygon class="cls-1" points="797.008 101.893 755.071 101.893 755.071 217.532 666.007 101.904 633.82 101.904 633.82 292.507 675.689 292.507 675.689 178.309 764.527 292.507 797.008 292.507 797.008 101.893 797.008 101.893"/><rect class="cls-1" x="1381.96348" y="101.8931" width="41.90976" height="190.60344"/><polygon class="cls-1" points="1045.876 101.893 884.212 101.893 884.212 138.193 944.089 138.193 944.089 292.497 985.999 292.497 985.999 138.193 1045.876 138.193 1045.876 101.893"/><polygon class="cls-1" points="1294.751 101.893 1133.088 101.893 1133.088 138.193 1192.965 138.193 1192.965 292.497 1234.875 292.497 1234.875 138.193 1294.751 138.193 1294.751 101.893"/><polygon class="cls-1" points="472.328 101.893 434.373 101.893 360.085 292.572 401.955 292.572 453.35 155.465 504.745 292.497 546.616 292.572 472.328 101.893"/><path class="cls-1" d="M294.1207,179.04472H197.24583v36.3002h53.44122a56.57436,56.57436,0,1,1-53.44122-74.83108V98.57955a98.947,98.947,0,1,0,96.87487,80.46517Z"/><path class="cls-1" d="M1609.7002,253.8758a56.68155,56.68155,0,1,1,53.44187-74.83108h43.433a98.61529,98.61529,0,1,0,0,36.3002h-43.43365A56.49806,56.49806,0,0,1,1609.7002,253.8758Z"/></svg>